<?xml version="1.0" encoding="UTF-8" standalone="no"?>
<!-- Created with Inkscape (http://www.inkscape.org/) -->

<svg
   xmlns:dc="http://purl.org/dc/elements/1.1/"
   xmlns:cc="http://creativecommons.org/ns#"
   xmlns:rdf="http://www.w3.org/1999/02/22-rdf-syntax-ns#"
   xmlns:svg="http://www.w3.org/2000/svg"
   xmlns="http://www.w3.org/2000/svg"
   xmlns:sodipodi="http://sodipodi.sourceforge.net/DTD/sodipodi-0.dtd"
   xmlns:inkscape="http://www.inkscape.org/namespaces/inkscape"
   width="40.639999mm"
   height="128.5mm"
   viewBox="0 0 40.640001 128.50002"
   version="1.1"
   id="svg8"
   inkscape:version="0.92.3 (2405546, 2018-03-11)"
   sodipodi:docname="PerlinOne.svg">
  <defs
     id="defs2" />
  <sodipodi:namedview
     id="base"
     pagecolor="#ffffff"
     bordercolor="#666666"
     borderopacity="1.0"
     inkscape:pageopacity="0.0"
     inkscape:pageshadow="2"
     inkscape:zoom="4.8678719"
     inkscape:cx="43.535808"
     inkscape:cy="159.84499"
     inkscape:document-units="mm"
     inkscape:current-layer="layer1"
     showgrid="false"
     units="mm"
     inkscape:snap-bbox="true"
     inkscape:snap-page="true"
     inkscape:bbox-nodes="true"
     inkscape:snap-bbox-edge-midpoints="true"
     inkscape:window-width="1920"
     inkscape:window-height="1051"
     inkscape:window-x="1920"
     inkscape:window-y="0"
     inkscape:window-maximized="1"
     showguides="true"
     inkscape:guide-bbox="true"
     objecttolerance="4" />
  <metadata
     id="metadata5">
    <rdf:RDF>
      <cc:Work
         rdf:about="">
        <dc:format>image/svg+xml</dc:format>
        <dc:type
           rdf:resource="http://purl.org/dc/dcmitype/StillImage" />
        <dc:title></dc:title>
      </cc:Work>
    </rdf:RDF>
  </metadata>
  <g
     inkscape:label="Layer 1"
     inkscape:groupmode="layer"
     id="layer1"
     transform="translate(0,-168.49997)">
    <path
       style="opacity:1;fill:#313131;fill-opacity:1;fill-rule:evenodd;stroke:none;stroke-width:0.71788085;stroke-linecap:butt;stroke-linejoin:round;stroke-miterlimit:4;stroke-dasharray:none;stroke-dashoffset:0;stroke-opacity:1;paint-order:normal"
       d="M 0,168.49997 H 40.639999 V 297 H 0 Z"
       id="rect817"
       inkscape:connector-curvature="0" />
    <rect
       style="fill:none;fill-opacity:1;stroke:#ffffff;stroke-width:0.79153031;stroke-linecap:round;stroke-linejoin:round;stroke-miterlimit:4;stroke-dasharray:none;stroke-opacity:1"
       id="rect5644"
       width="37.109669"
       height="21.416775"
       x="1.9323775"
       y="250.75763" />
    <path
       style="fill:none;fill-rule:evenodd;stroke:#ffffff;stroke-width:0.68699616;stroke-linecap:butt;stroke-linejoin:miter;stroke-miterlimit:4;stroke-dasharray:none;stroke-opacity:1"
       d="m 23.337991,182.22213 c 6.412905,4.51035 -0.54068,5.59784 5.934957,10.08993 1.243598,0.86267 -3.531064,5.18229 -1.33842,8.02944 1.098667,1.42662 -3.128218,3.64671 -4.075733,8.58451 -0.461421,2.40463 4.495564,3.20393 3.065557,8.45285 -0.456858,1.67693 1.969791,5.03671 1.551302,6.87327 -0.774048,3.39694 -3.907797,3.15154 -4.832921,6.44972 -0.492118,1.75447 4.991544,2.84475 1.451452,5.60176 -1.112542,0.86644 2.723185,4.4544 2.29601,6.04057 -1.070238,3.97396 -5.515447,6.31491 -4.052204,7.9786"
       id="path4174"
       inkscape:connector-curvature="0"
       sodipodi:nodetypes="cssssssssc" />
    <g
       style="font-style:normal;font-weight:normal;font-size:2.62160015px;line-height:125%;font-family:Sans;letter-spacing:0px;word-spacing:0px;fill:#ffffff;fill-opacity:1;stroke:none;stroke-width:1px;stroke-linecap:butt;stroke-linejoin:miter;stroke-opacity:1"
       id="text4158"
       transform="translate(0,-16.404171)">
      <path
         d="m 4.2131387,213.89957 v 0.22273 q -0.099846,-0.0512 -0.2073726,-0.0768 -0.1075266,-0.0256 -0.2227336,-0.0256 -0.1753708,0 -0.2636961,0.0538 -0.087045,0.0538 -0.087045,0.16129 0,0.0819 0.062724,0.12929 0.062724,0.0461 0.2521754,0.0883 l 0.080645,0.0179 q 0.2508953,0.0538 0.3558617,0.15232 0.1062465,0.0973 0.1062465,0.27266 0,0.19969 -0.1587297,0.31618 -0.1574496,0.11649 -0.4339465,0.11649 -0.115207,0 -0.2406547,-0.023 -0.1241676,-0.0218 -0.262416,-0.0666 v -0.24321 q 0.130568,0.0678 0.2572957,0.1024 0.1267278,0.0333 0.2508953,0.0333 0.1664102,0 0.2560157,-0.0563 0.089605,-0.0576 0.089605,-0.16129 0,-0.096 -0.065284,-0.14721 -0.064004,-0.0512 -0.2828973,-0.0986 l -0.081925,-0.0192 q -0.2188934,-0.0461 -0.3161793,-0.14081 -0.097286,-0.096 -0.097286,-0.26242 0,-0.20225 0.1433688,-0.31234 0.1433687,-0.11008 0.4070648,-0.11008 0.130568,0 0.2457751,0.0192 0.115207,0.0192 0.2124928,0.0576 z"
         id="path4163"
         inkscape:connector-curvature="0" />
      <path
         d="m 4.8941403,215.07596 v 0.76037 H 4.6573258 v -1.979 h 0.2368145 v 0.21761 q 0.074244,-0.12801 0.1868914,-0.18945 0.113927,-0.0627 0.2713766,-0.0627 0.261136,0 0.4237059,0.20737 0.16385,0.20737 0.16385,0.54531 0,0.33794 -0.16385,0.54532 -0.1625699,0.20737 -0.4237059,0.20737 -0.1574496,0 -0.2713766,-0.0614 -0.1126469,-0.0627 -0.1868914,-0.19073 z m 0.801329,-0.50051 q 0,-0.25985 -0.1075266,-0.40706 -0.1062465,-0.14849 -0.2931379,-0.14849 -0.1868914,0 -0.294418,0.14849 -0.1062465,0.14721 -0.1062465,0.40706 0,0.25986 0.1062465,0.40835 0.1075266,0.14721 0.294418,0.14721 0.1868914,0 0.2931379,-0.14721 0.1075266,-0.14849 0.1075266,-0.40835 z"
         id="path4165"
         inkscape:connector-curvature="0" />
      <path
         d="m 7.556703,214.51529 v 0.11521 H 6.4737569 q 0.015361,0.24321 0.1459289,0.37122 0.131848,0.12673 0.3661023,0.12673 0.1356883,0 0.2624161,-0.0333 0.1280078,-0.0333 0.2534555,-0.0998 v 0.22273 q -0.1267278,0.0538 -0.2598559,0.0819 -0.1331281,0.0282 -0.2700965,0.0282 -0.343061,0 -0.5440332,-0.19969 -0.1996922,-0.1997 -0.1996922,-0.5402 0,-0.35202 0.1894515,-0.55811 0.1907317,-0.20737 0.5133114,-0.20737 0.2892977,0 0.4569879,0.18689 0.1689703,0.18561 0.1689703,0.50563 z m -0.2355344,-0.0691 q -0.00256,-0.19329 -0.1088066,-0.30849 -0.1049664,-0.11521 -0.2790571,-0.11521 -0.197132,0 -0.3161793,0.11136 -0.1177672,0.11137 -0.1356883,0.31362 l 0.8397313,-0.001 z"
         id="path4167"
         inkscape:connector-curvature="0" />
      <path
         d="m 9.1644811,214.51529 v 0.11521 H 8.0815349 q 0.015361,0.24321 0.145929,0.37122 0.131848,0.12673 0.3661023,0.12673 0.1356883,0 0.262416,-0.0333 0.1280079,-0.0333 0.2534555,-0.0998 v 0.22273 q -0.1267277,0.0538 -0.2598558,0.0819 -0.1331282,0.0282 -0.2700965,0.0282 -0.343061,0 -0.5440333,-0.19969 -0.1996922,-0.1997 -0.1996922,-0.5402 0,-0.35202 0.1894516,-0.55811 0.1907316,-0.20737 0.5133114,-0.20737 0.2892976,0 0.4569879,0.18689 0.1689703,0.18561 0.1689703,0.50563 z m -0.2355344,-0.0691 q -0.00256,-0.19329 -0.1088066,-0.30849 -0.1049665,-0.11521 -0.2790571,-0.11521 -0.197132,0 -0.3161793,0.11136 -0.1177672,0.11137 -0.1356883,0.31362 l 0.8397313,-0.001 z"
         id="path4169"
         inkscape:connector-curvature="0" />
      <path
         d="m 10.489362,214.07494 v -0.77573 h 0.235534 v 1.99181 h -0.235534 v -0.21506 q -0.07424,0.12801 -0.188172,0.19073 -0.112646,0.0614 -0.271376,0.0614 -0.2598561,0 -0.4237061,-0.20737 -0.1625699,-0.20738 -0.1625699,-0.54532 0,-0.33794 0.1625699,-0.54531 0.16385,-0.20737 0.4237061,-0.20737 0.15873,0 0.271376,0.0627 0.113927,0.0614 0.188172,0.18945 z m -0.8026091,0.50051 q 0,0.25986 0.1062464,0.40835 0.1075266,0.14721 0.2944177,0.14721 0.186892,0 0.294418,-0.14721 0.107527,-0.14849 0.107527,-0.40835 0,-0.25985 -0.107527,-0.40706 -0.107526,-0.14849 -0.294418,-0.14849 -0.1868911,0 -0.2944177,0.14849 -0.1062464,0.14721 -0.1062464,0.40706 z"
         id="path4171"
         inkscape:connector-curvature="0" />
    </g>
    <g
       style="font-style:normal;font-weight:normal;font-size:2.97738886px;line-height:125%;font-family:Sans;letter-spacing:0px;word-spacing:0px;fill:#ffffff;fill-opacity:1;stroke:none;stroke-width:1px;stroke-linecap:butt;stroke-linejoin:miter;stroke-opacity:1"
       id="text4162"
       transform="translate(0,-6.3500003)">
      <path
         d="m 3.6033764,229.65967 q -0.3241981,0 -0.4492252,0.0742 -0.125027,0.0741 -0.125027,0.25296 0,0.14247 0.093043,0.22679 0.094497,0.0829 0.2558693,0.0829 0.2224319,0 0.3561818,-0.15701 0.1352037,-0.15847 0.1352037,-0.42015 v -0.0596 H 3.603376 Z m 0.5335458,-0.11049 v 0.92898 H 3.8694224 v -0.24714 q -0.09159,0.14829 -0.2282471,0.21952 -0.1366575,0.0698 -0.3343747,0.0698 -0.2500542,0 -0.3983421,-0.13956 -0.1468341,-0.14102 -0.1468341,-0.37654 0,-0.27476 0.1831792,-0.41433 0.184633,-0.13956 0.5495376,-0.13956 h 0.3750812 v -0.0262 q 0,-0.18464 -0.1221195,-0.28495 -0.1206656,-0.10176 -0.3401899,-0.10176 -0.1395651,0 -0.2718612,0.0334 -0.1322961,0.0334 -0.2544156,0.10032 v -0.24715 q 0.1468342,-0.0567 0.2849455,-0.0843 0.1381113,-0.0291 0.2689535,-0.0291 0.3532742,0 0.5277306,0.18318 0.1744564,0.18318 0.1744564,0.55535 z"
         id="path4175"
         inkscape:connector-curvature="0" />
      <path
         d="m 5.9628989,229.16247 q 0.1003125,-0.18027 0.2398776,-0.26604 0.1395651,-0.0858 0.3285595,-0.0858 0.2544155,0 0.3925268,0.17882 0.1381113,0.17736 0.1381113,0.50592 v 0.98277 H 6.7930205 v -0.97404 q 0,-0.23407 -0.082867,-0.34746 -0.082867,-0.1134 -0.2529618,-0.1134 -0.2078938,0 -0.3285595,0.13811 -0.1206657,0.13811 -0.1206657,0.37654 v 0.92025 H 5.739013 v -0.97404 q 0,-0.23552 -0.082867,-0.34746 -0.082867,-0.1134 -0.2558694,-0.1134 -0.2049862,0 -0.3256519,0.13957 -0.1206656,0.13811 -0.1206656,0.37508 v 0.92025 H 4.6850055 v -1.62825 h 0.2689536 v 0.25296 q 0.09159,-0.14974 0.2195242,-0.22098 0.1279347,-0.0712 0.3038449,-0.0712 0.177364,0 0.3009372,0.0901 0.1250271,0.0901 0.184633,0.26168 z"
         id="path4190"
         inkscape:connector-curvature="0" />
      <path
         d="m 7.8499355,230.23393 v 0.86355 H 7.5809819 v -2.24757 h 0.2689536 v 0.24714 q 0.084321,-0.14538 0.2122553,-0.21516 0.1293884,-0.0712 0.3082062,-0.0712 0.2965759,0 0.4812089,0.23552 0.1860868,0.23551 0.1860868,0.61932 0,0.3838 -0.1860868,0.61932 -0.184633,0.23551 -0.4812089,0.23551 -0.1788178,0 -0.3082062,-0.0698 -0.1279347,-0.0712 -0.2122553,-0.21661 z m 0.9100808,-0.56844 q 0,-0.29512 -0.1221195,-0.46231 -0.1206657,-0.16864 -0.3329209,-0.16864 -0.2122553,0 -0.3343747,0.16864 -0.1206657,0.16719 -0.1206657,0.46231 0,0.29512 0.1206657,0.46376 0.1221194,0.16719 0.3343747,0.16719 0.2122552,0 0.3329209,-0.16719 0.1221195,-0.16864 0.1221195,-0.46376 z"
         id="path4192"
         inkscape:connector-curvature="0" />
    </g>
    <rect
       style="fill:#ffffff;fill-opacity:0.11764706;stroke:none;stroke-width:1.01204681;stroke-linecap:round;stroke-linejoin:round;stroke-miterlimit:4;stroke-dasharray:none;stroke-opacity:0.43137255"
       id="rect4168"
       width="20.515495"
       height="13.989365"
       x="2.2560265"
       y="199.57875" />
    <rect
       y="225.24272"
       x="2.0195189"
       height="14.424438"
       width="20.431471"
       id="rect4170"
       style="fill:#ffffff;fill-opacity:0.11764706;stroke:none;stroke-width:1.02555728;stroke-linecap:round;stroke-linejoin:round;stroke-miterlimit:4;stroke-dasharray:none;stroke-opacity:0.43137255" />
    <text
       xml:space="preserve"
       style="font-style:normal;font-variant:normal;font-weight:normal;font-stretch:normal;font-size:10.58333302px;line-height:1.25;font-family:monospace;-inkscape-font-specification:monospace;letter-spacing:0px;word-spacing:0px;fill:#000000;fill-opacity:1;stroke:none;stroke-width:0.26458332"
       x="4.3045363"
       y="176.62668"
       id="text852"><tspan
         sodipodi:role="line"
         id="tspan850"
         x="4.3045363"
         y="185.99045"
         style="font-style:normal;font-variant:normal;font-weight:normal;font-stretch:normal;font-family:monospace;-inkscape-font-specification:monospace;stroke-width:0.26458332" /></text>
    <text
       xml:space="preserve"
       style="font-style:normal;font-variant:normal;font-weight:normal;font-stretch:normal;font-size:10.58333302px;line-height:1.25;font-family:Padauk;-inkscape-font-specification:Padauk;letter-spacing:0px;word-spacing:0px;fill:#000000;fill-opacity:1;stroke:none;stroke-width:0.26458332"
       x="0"
       y="178.47148"
       id="text856"><tspan
         sodipodi:role="line"
         id="tspan854"
         x="0"
         y="186.87332"
         style="font-style:normal;font-variant:normal;font-weight:normal;font-stretch:normal;font-family:Padauk;-inkscape-font-specification:Padauk;stroke-width:0.26458332" /></text>
    <g
       aria-label="perlinone"
       transform="matrix(1.1263378,0,0,0.88783312,5.1379339,0)"
       style="font-style:normal;font-variant:normal;font-weight:normal;font-stretch:normal;font-size:6.15455437px;line-height:1.25;font-family:Webdings;-inkscape-font-specification:Webdings;letter-spacing:0px;word-spacing:0px;fill:#ffffff;fill-opacity:1;stroke:none;stroke-width:0.15386386;stroke-opacity:1"
       id="text860">
      <path
         d="m 3.452579,203.25102 q 0.178482,0.0985 0.3815823,0.0985 0.1538639,0 0.2708004,-0.0615 0.1169366,-0.0615 0.1969458,-0.2031 0.086164,-0.14156 0.1292456,-0.37543 0.043082,-0.23388 0.043082,-0.57853 0,-0.66469 -0.1723275,-0.9478 -0.166173,-0.28927 -0.5354463,-0.28927 -0.0677,0 -0.1477093,0.0123 -0.080009,0.006 -0.1661729,0.0308 z m 0,1.6248 H 2.9232873 v -4.28357 q 0.1723275,-0.0738 0.3877369,-0.11694 0.221564,-0.0492 0.4492825,-0.0492 0.3385005,0 0.5785281,0.11693 0.2461822,0.11694 0.3938915,0.33851 0.1538638,0.2154 0.2215639,0.53544 0.073855,0.31388 0.073855,0.72008 0,0.81856 -0.2646459,1.24938 -0.2584912,0.43082 -0.8493285,0.43082 -0.1415547,0 -0.2523367,-0.0308 -0.110782,-0.0246 -0.2092548,-0.0738 z"
         style="font-style:normal;font-variant:normal;font-weight:normal;font-stretch:normal;font-family:'Ubuntu Condensed';-inkscape-font-specification:'Ubuntu Condensed, ';fill:#ffffff;fill-opacity:1;stroke:none;stroke-width:0.15386386;stroke-opacity:1"
         id="path1621"
         inkscape:connector-curvature="0" />
      <path
         d="m 6.1654873,202.2786 q 0.00615,0.23387 0.043082,0.43082 0.036927,0.19079 0.1169366,0.3385 0.086164,0.14155 0.2215639,0.22156 0.1415548,0.08 0.3569642,0.08 0.1784821,0 0.3261914,-0.0492 0.1538638,-0.0554 0.2215639,-0.0923 l 0.098473,0.42466 q -0.080009,0.0554 -0.2708004,0.11694 -0.1846366,0.0677 -0.4431279,0.0677 -0.3385005,0 -0.5723736,-0.12309 -0.2277185,-0.12309 -0.3754278,-0.34466 -0.1415547,-0.22156 -0.2031003,-0.52929 -0.061545,-0.30773 -0.061545,-0.677 0,-0.89241 0.2954186,-1.30477 0.2954186,-0.41235 0.7816284,-0.41235 0.5477553,0 0.7754738,0.41235 0.2277185,0.41236 0.2277185,1.15706 0,0.0677 0,0.14155 0,0.0677 -0.00615,0.14156 z m 0.5354462,-1.40324 q -0.2646459,0 -0.3877369,0.26465 -0.1169366,0.26464 -0.1415548,0.70777 H 7.150216 q 0,-0.44928 -0.092318,-0.70777 -0.092318,-0.26465 -0.3569645,-0.26465 z"
         style="font-style:normal;font-variant:normal;font-weight:normal;font-stretch:normal;font-family:'Ubuntu Condensed';-inkscape-font-specification:'Ubuntu Condensed, ';fill:#ffffff;fill-opacity:1;stroke:none;stroke-width:0.15386386;stroke-opacity:1"
         id="path1623"
         inkscape:connector-curvature="0" />
      <path
         d="m 9.8800492,200.98614 q -0.1969457,-0.0862 -0.4431279,-0.0862 -0.2277185,0 -0.4246642,0.08 v 2.75724 H 8.4829654 v -3.08959 q 0.1784821,-0.0862 0.4062006,-0.14155 0.233873,-0.0616 0.510828,-0.0616 0.1477093,0 0.2954186,0.0185 0.1477093,0.0185 0.2769549,0.0677 z"
         style="font-style:normal;font-variant:normal;font-weight:normal;font-stretch:normal;font-family:'Ubuntu Condensed';-inkscape-font-specification:'Ubuntu Condensed, ';fill:#ffffff;fill-opacity:1;stroke:none;stroke-width:0.15386386;stroke-opacity:1"
         id="path1625"
         inkscape:connector-curvature="0" />
      <path
         d="m 11.339448,203.79877 q -0.455437,-0.0123 -0.652383,-0.22156 -0.196946,-0.21541 -0.196946,-0.677 v -3.8466 l 0.529292,-0.0923 v 3.95123 q 0,0.21541 0.08616,0.31388 0.08616,0.0923 0.301573,0.12925 z"
         style="font-style:normal;font-variant:normal;font-weight:normal;font-stretch:normal;font-family:'Ubuntu Condensed';-inkscape-font-specification:'Ubuntu Condensed, ';fill:#ffffff;fill-opacity:1;stroke:none;stroke-width:0.15386386;stroke-opacity:1"
         id="path1627"
         inkscape:connector-curvature="0" />
      <path
         d="m 12.522276,203.73723 h -0.529292 v -3.23114 h 0.529292 z m -0.264646,-3.80352 q -0.141555,0 -0.246182,-0.0923 -0.09847,-0.0985 -0.09847,-0.2585 0,-0.16001 0.09847,-0.25233 0.104627,-0.0985 0.246182,-0.0985 0.141555,0 0.240028,0.0985 0.104627,0.0923 0.104627,0.25233 0,0.16002 -0.104627,0.2585 -0.09847,0.0923 -0.240028,0.0923 z"
         style="font-style:normal;font-variant:normal;font-weight:normal;font-stretch:normal;font-family:'Ubuntu Condensed';-inkscape-font-specification:'Ubuntu Condensed, ';fill:#ffffff;fill-opacity:1;stroke:none;stroke-width:0.15386386;stroke-opacity:1"
         id="path1629"
         inkscape:connector-curvature="0" />
      <path
         d="m 13.483541,200.59841 q 0.227718,-0.0677 0.492364,-0.11079 0.264646,-0.0492 0.48621,-0.0492 0.240028,0 0.436973,0.0677 0.196946,0.0615 0.332346,0.21541 0.141555,0.15386 0.21541,0.41851 0.08001,0.25849 0.08001,0.64622 v 1.951 h -0.529292 v -1.90791 q 0,-0.48006 -0.123091,-0.70162 -0.123091,-0.22157 -0.461591,-0.22157 -0.178482,0 -0.400046,0.0616 v 2.76955 h -0.529292 z"
         style="font-style:normal;font-variant:normal;font-weight:normal;font-stretch:normal;font-family:'Ubuntu Condensed';-inkscape-font-specification:'Ubuntu Condensed, ';fill:#ffffff;fill-opacity:1;stroke:none;stroke-width:0.15386386;stroke-opacity:1"
         id="path1631"
         inkscape:connector-curvature="0" />
      <path
         d="m 18.526717,202.12474 q 0,0.38158 -0.0677,0.69546 -0.0677,0.30773 -0.209255,0.52929 -0.1354,0.22157 -0.350809,0.34466 -0.209255,0.12309 -0.498519,0.12309 -0.289264,0 -0.504674,-0.12309 -0.215409,-0.12309 -0.356964,-0.34466 -0.1354,-0.22156 -0.2031,-0.52929 -0.0677,-0.31388 -0.0677,-0.69546 0,-0.37543 0.0677,-0.68931 0.0677,-0.31389 0.2031,-0.53545 0.141555,-0.22772 0.356964,-0.35081 0.21541,-0.12309 0.504674,-0.12309 0.289264,0 0.498519,0.12309 0.215409,0.12309 0.350809,0.35081 0.141555,0.22156 0.209255,0.53545 0.0677,0.31388 0.0677,0.68931 z m -0.55391,0 q 0,-0.27081 -0.03077,-0.49237 -0.03077,-0.22772 -0.09847,-0.38774 -0.0677,-0.16617 -0.178482,-0.25233 -0.110782,-0.0923 -0.264646,-0.0923 -0.160019,0 -0.270801,0.0923 -0.104627,0.0862 -0.178482,0.25233 -0.0677,0.16002 -0.09847,0.38774 -0.03077,0.22156 -0.03077,0.49237 0,0.2708 0.03077,0.49851 0.03077,0.22157 0.09847,0.38159 0.07386,0.16001 0.178482,0.25233 0.110782,0.0862 0.270801,0.0862 0.153864,0 0.264646,-0.0862 0.110782,-0.0923 0.178482,-0.25233 0.0677,-0.16002 0.09847,-0.38159 0.03077,-0.22771 0.03077,-0.49851 z"
         style="font-style:normal;font-variant:normal;font-weight:normal;font-stretch:normal;font-family:'Ubuntu Condensed';-inkscape-font-specification:'Ubuntu Condensed, ';fill:#ffffff;fill-opacity:1;stroke:none;stroke-width:0.15386386;stroke-opacity:1"
         id="path1633"
         inkscape:connector-curvature="0" />
      <path
         d="m 19.301518,200.59841 q 0.227718,-0.0677 0.492364,-0.11079 0.264646,-0.0492 0.48621,-0.0492 0.240028,0 0.436973,0.0677 0.196946,0.0615 0.332346,0.21541 0.141555,0.15386 0.21541,0.41851 0.08001,0.25849 0.08001,0.64622 v 1.951 h -0.529292 v -1.90791 q 0,-0.48006 -0.123091,-0.70162 -0.123091,-0.22157 -0.461591,-0.22157 -0.178482,0 -0.400046,0.0616 v 2.76955 h -0.529292 z"
         style="font-style:normal;font-variant:normal;font-weight:normal;font-stretch:normal;font-family:'Ubuntu Condensed';-inkscape-font-specification:'Ubuntu Condensed, ';fill:#ffffff;fill-opacity:1;stroke:none;stroke-width:0.15386386;stroke-opacity:1"
         id="path1635"
         inkscape:connector-curvature="0" />
      <path
         d="m 22.633728,202.2786 q 0.0062,0.23387 0.04308,0.43082 0.03693,0.19079 0.116936,0.3385 0.08616,0.14155 0.221564,0.22156 0.141555,0.08 0.356965,0.08 0.178482,0 0.326191,-0.0492 0.153864,-0.0554 0.221564,-0.0923 l 0.09847,0.42466 q -0.08001,0.0554 -0.270801,0.11694 -0.184636,0.0677 -0.443128,0.0677 -0.3385,0 -0.572373,-0.12309 -0.227719,-0.12309 -0.375428,-0.34466 -0.141555,-0.22156 -0.2031,-0.52929 -0.06155,-0.30773 -0.06155,-0.677 0,-0.89241 0.295419,-1.30477 0.295418,-0.41235 0.781628,-0.41235 0.547756,0 0.775474,0.41235 0.227719,0.41236 0.227719,1.15706 0,0.0677 0,0.14155 0,0.0677 -0.0062,0.14156 z m 0.535446,-1.40324 q -0.264646,0 -0.387737,0.26465 -0.116936,0.26464 -0.141554,0.70777 h 0.978574 q 0,-0.44928 -0.09232,-0.70777 -0.09232,-0.26465 -0.356964,-0.26465 z"
         style="font-style:normal;font-variant:normal;font-weight:normal;font-stretch:normal;font-family:'Ubuntu Condensed';-inkscape-font-specification:'Ubuntu Condensed, ';fill:#ffffff;fill-opacity:1;stroke:none;stroke-width:0.15386386;stroke-opacity:1"
         id="path1637"
         inkscape:connector-curvature="0" />
    </g>
    <rect
       style="fill:none;fill-opacity:1;stroke:#ffffff;stroke-width:0.54696304;stroke-linecap:round;stroke-linejoin:round;stroke-miterlimit:4;stroke-dasharray:none;stroke-opacity:1"
       id="rect5644-7"
       width="37.302643"
       height="10.17378"
       x="1.8337939"
       y="272.26593" />
    <g
       aria-label="mix &gt;"
       transform="matrix(1.1263378,0,0,0.88783312,0,-4.2333335)"
       style="font-style:normal;font-variant:normal;font-weight:normal;font-stretch:normal;font-size:6.15455389px;line-height:1.25;font-family:Webdings;-inkscape-font-specification:Webdings;letter-spacing:0px;word-spacing:0px;fill:#ffffff;fill-opacity:1;stroke:none;stroke-width:0.15386386;stroke-opacity:1"
       id="text860-8">
      <path
         d="m 3.8236569,315.91748 q 0.2154094,-0.0677 0.4677461,-0.11078 0.2523367,-0.0492 0.4615915,-0.0492 0.2154094,0 0.3877369,0.0554 0.1784821,0.0554 0.3138823,0.18463 0.1600184,-0.10463 0.344655,-0.17233 0.1846366,-0.0677 0.4062006,-0.0677 0.2215639,0 0.400046,0.0677 0.1846366,0.0616 0.3138822,0.21541 0.1292456,0.15387 0.2031003,0.41851 0.073855,0.25849 0.073855,0.64623 v 1.95099 h -0.529292 v -1.90791 q 0,-0.48005 -0.110782,-0.70162 -0.1107819,-0.22156 -0.4185096,-0.22156 -0.1169366,0 -0.2400276,0.0431 -0.1169366,0.0431 -0.221564,0.11694 0.049237,0.14155 0.073855,0.32004 0.024618,0.17848 0.024618,0.40004 v 1.95099 H 5.2453589 v -1.90791 q 0,-0.48005 -0.110782,-0.70162 -0.110782,-0.22156 -0.4185097,-0.22156 -0.1600184,0 -0.3631187,0.0616 v 2.76954 H 3.8236569 Z"
         style="font-style:normal;font-variant:normal;font-weight:normal;font-stretch:normal;font-family:'Ubuntu Condensed';-inkscape-font-specification:'Ubuntu Condensed, ';fill:#ffffff;fill-opacity:1;stroke:none;stroke-width:0.15386386;stroke-opacity:1"
         id="path1640"
         inkscape:connector-curvature="0" />
      <path
         d="M 8.6443075,319.0563 H 8.1150159 v -3.23114 h 0.5292916 z m -0.2646458,-3.80351 q -0.1415548,0 -0.2461822,-0.0923 -0.098473,-0.0985 -0.098473,-0.25849 0,-0.16002 0.098473,-0.25234 0.1046274,-0.0985 0.2461822,-0.0985 0.1415547,0 0.2400276,0.0985 0.1046274,0.0923 0.1046274,0.25234 0,0.16002 -0.1046274,0.25849 -0.098473,0.0923 -0.2400276,0.0923 z"
         style="font-style:normal;font-variant:normal;font-weight:normal;font-stretch:normal;font-family:'Ubuntu Condensed';-inkscape-font-specification:'Ubuntu Condensed, ';fill:#ffffff;fill-opacity:1;stroke:none;stroke-width:0.15386386;stroke-opacity:1"
         id="path1642"
         inkscape:connector-curvature="0" />
      <path
         d="m 10.621073,317.34534 q 0.104627,0.19079 0.215409,0.4062 0.116937,0.21541 0.227719,0.43697 0.110782,0.22157 0.209255,0.44313 0.09847,0.22156 0.172327,0.42466 h -0.523137 q -0.123091,-0.35696 -0.289264,-0.677 -0.160018,-0.32619 -0.320037,-0.6093 -0.153864,0.28311 -0.3138819,0.6093 -0.1538639,0.32004 -0.276955,0.677 H 9.2178347 q 0.0677,-0.2031 0.166173,-0.4185 0.1046274,-0.22157 0.2154094,-0.44313 0.1107819,-0.22157 0.2215639,-0.43082 0.1169365,-0.21541 0.221564,-0.4062 l -0.7939375,-1.53249 h 0.5354462 l 0.5539103,1.09551 0.560064,-1.09551 h 0.516982 z"
         style="font-style:normal;font-variant:normal;font-weight:normal;font-stretch:normal;font-family:'Ubuntu Condensed';-inkscape-font-specification:'Ubuntu Condensed, ';fill:#ffffff;fill-opacity:1;stroke:none;stroke-width:0.15386386;stroke-opacity:1"
         id="path1644"
         inkscape:connector-curvature="0" />
      <path
         d="m 13.254549,318.5701 -0.227718,-0.40005 1.569411,-0.92318 -1.569411,-0.92319 0.227718,-0.40004 1.852521,1.13243 v 0.38159 z"
         style="font-style:normal;font-variant:normal;font-weight:normal;font-stretch:normal;font-family:'Ubuntu Condensed';-inkscape-font-specification:'Ubuntu Condensed, ';fill:#ffffff;fill-opacity:1;stroke:none;stroke-width:0.15386386;stroke-opacity:1"
         id="path1646"
         inkscape:connector-curvature="0" />
    </g>
    <g
       aria-label="digitalhappens"
       style="font-style:normal;font-variant:normal;font-weight:normal;font-stretch:normal;font-size:4.38337231px;line-height:1.25;font-family:'Noto Color Emoji';-inkscape-font-specification:'Noto Color Emoji';letter-spacing:0px;word-spacing:0px;fill:#ffffff;fill-opacity:1;stroke:none;stroke-width:0.10958431"
       id="text3379"
       transform="matrix(0.84863742,0,0,0.84503185,-1.763433,38.791191)">
      <path
         d="m 14.089272,295.32648 h -0.261119 v -0.22688 q -0.256838,0.28253 -0.616411,0.28253 -0.376696,0 -0.59929,-0.30393 -0.218312,-0.30393 -0.218312,-0.82188 0,-0.51796 0.235435,-0.82188 0.235435,-0.30393 0.629254,-0.30393 0.321047,0 0.547921,0.18835 v -0.98883 h 0.282522 z m -0.282522,-1.64377 q -0.192629,-0.29536 -0.552202,-0.29536 -0.2654,0 -0.423783,0.23543 -0.154103,0.23544 -0.154103,0.63354 0,0.3981 0.141261,0.63353 0.145542,0.23544 0.389538,0.23544 0.380977,0 0.599289,-0.37242 z"
         style="fill:#ffffff;fill-opacity:1;stroke-width:0.10958431"
         id="path3415"
         inkscape:connector-curvature="0" />
      <path
         d="m 15.142309,295.32648 h -0.282522 v -2.14032 h 0.282522 z m -0.282522,-2.70108 q -0.05565,-0.0557 -0.05565,-0.13699 0,-0.0813 0.05565,-0.13698 0.05993,-0.0599 0.141261,-0.0599 0.08133,0 0.13698,0.0599 0.05993,0.0557 0.05993,0.13698 0,0.0813 -0.05993,0.13699 -0.05565,0.0556 -0.13698,0.0556 -0.08133,0 -0.141261,-0.0556 z"
         style="fill:#ffffff;fill-opacity:1;stroke-width:0.10958431"
         id="path3417"
         inkscape:connector-curvature="0" />
      <path
         d="m 17.43673,295.48914 q 0,0.36386 -0.209751,0.56505 -0.20547,0.20547 -0.573605,0.20547 -0.53508,0 -0.796199,-0.46659 l 0.231155,-0.14555 q 0.179786,0.34674 0.565044,0.34674 0.239715,0 0.368135,-0.1327 0.132699,-0.12842 0.132699,-0.37242 v -0.42378 q -0.248277,0.26112 -0.595008,0.26112 -0.372416,0 -0.595009,-0.28681 -0.222593,-0.29108 -0.222593,-0.77907 0,-0.51796 0.235435,-0.82188 0.235435,-0.30393 0.629254,-0.30393 0.33817,0 0.569324,0.25256 v -0.19691 h 0.261119 z m -0.282522,-1.71225 q -0.07277,-0.17979 -0.222593,-0.28253 -0.145542,-0.10273 -0.329609,-0.10273 -0.265399,0 -0.423783,0.23543 -0.154103,0.23544 -0.154103,0.63354 0,0.36813 0.141261,0.59073 0.145542,0.21831 0.389538,0.21831 0.380977,0 0.599289,-0.37242 z"
         style="fill:#ffffff;fill-opacity:1;stroke-width:0.10958431"
         id="path3419"
         inkscape:connector-curvature="0" />
      <path
         d="m 18.489767,295.32648 h -0.282522 v -2.14032 h 0.282522 z m -0.282522,-2.70108 q -0.05565,-0.0557 -0.05565,-0.13699 0,-0.0813 0.05565,-0.13698 0.05993,-0.0599 0.141261,-0.0599 0.08133,0 0.13698,0.0599 0.05993,0.0557 0.05993,0.13698 0,0.0813 -0.05993,0.13699 -0.05565,0.0556 -0.13698,0.0556 -0.08133,0 -0.141261,-0.0556 z"
         style="fill:#ffffff;fill-opacity:1;stroke-width:0.10958431"
         id="path3421"
         inkscape:connector-curvature="0" />
      <path
         d="m 19.024847,293.18616 h 0.291083 v -0.42807 h 0.282522 v 0.42807 h 0.547922 v 0.25684 h -0.547922 v 1.41261 q 0,0.12414 0.05993,0.19691 0.06421,0.0728 0.166945,0.0728 0.175506,0 0.286802,-0.13698 l 0.179787,0.1541 q -0.166945,0.23972 -0.466589,0.23972 -0.235435,0 -0.372416,-0.14127 -0.13698,-0.14126 -0.13698,-0.38525 V 293.443 h -0.291083 z"
         style="fill:#ffffff;fill-opacity:1;stroke-width:0.10958431"
         id="path3423"
         inkscape:connector-curvature="0" />
      <path
         d="m 21.858628,295.10388 q -0.243996,0.27825 -0.582166,0.27825 -0.351013,0 -0.560764,-0.18835 -0.20547,-0.19263 -0.20547,-0.5094 0,-0.32105 0.20547,-0.50939 0.209751,-0.18835 0.560764,-0.18835 0.316767,0 0.560763,0.18407 v -0.28681 q 0,-0.22687 -0.13698,-0.35957 -0.1327,-0.13698 -0.355293,-0.13698 -0.33389,0 -0.53936,0.28252 l -0.218313,-0.14126 q 0.26968,-0.3981 0.757673,-0.3981 0.355293,0 0.565044,0.20547 0.209751,0.20547 0.209751,0.54792 v 1.44258 h -0.261119 z m -0.586447,0.0214 q 0.351012,0 0.565044,-0.34245 v -0.31677 q -0.209751,-0.22259 -0.565044,-0.22259 -0.222593,0 -0.351012,0.11985 -0.128419,0.11986 -0.128419,0.32105 0,0.20119 0.128419,0.32105 0.128419,0.11986 0.351012,0.11986 z"
         style="fill:#ffffff;fill-opacity:1;stroke-width:0.10958431"
         id="path3425"
         inkscape:connector-curvature="0" />
      <path
         d="m 23.129978,295.32648 h -0.282522 v -2.99645 h 0.282522 z"
         style="fill:#ffffff;fill-opacity:1;stroke-width:0.10958431"
         id="path3427"
         inkscape:connector-curvature="0" />
      <path
         d="M 25.510012,295.32648 H 25.22749 v -1.47254 q 0,-0.46659 -0.440906,-0.46659 -0.393818,0 -0.60357,0.35101 v 1.58812 h -0.282522 v -2.99645 h 0.282522 v 1.06588 q 0.252558,-0.2654 0.60357,-0.2654 0.355293,0 0.53936,0.18835 0.184068,0.18407 0.184068,0.53508 z"
         style="font-style:normal;font-variant:normal;font-weight:normal;font-stretch:normal;font-family:'Lohit Telugu';-inkscape-font-specification:'Lohit Telugu';fill:#ffffff;fill-opacity:1;stroke-width:0.10958431"
         id="path3429"
         inkscape:connector-curvature="0" />
      <path
         d="m 27.457702,295.10388 q -0.243997,0.27825 -0.582167,0.27825 -0.351012,0 -0.560763,-0.18835 -0.205471,-0.19263 -0.205471,-0.5094 0,-0.32105 0.205471,-0.50939 0.209751,-0.18835 0.560763,-0.18835 0.316767,0 0.560763,0.18407 v -0.28681 q 0,-0.22687 -0.13698,-0.35957 -0.1327,-0.13698 -0.355293,-0.13698 -0.333889,0 -0.53936,0.28252 l -0.218313,-0.14126 q 0.269681,-0.3981 0.757673,-0.3981 0.355293,0 0.565044,0.20547 0.209752,0.20547 0.209752,0.54792 v 1.44258 h -0.261119 z m -0.586448,0.0214 q 0.351013,0 0.565044,-0.34245 v -0.31677 q -0.209751,-0.22259 -0.565044,-0.22259 -0.222593,0 -0.351012,0.11985 -0.128419,0.11986 -0.128419,0.32105 0,0.20119 0.128419,0.32105 0.128419,0.11986 0.351012,0.11986 z"
         style="font-style:normal;font-variant:normal;font-weight:normal;font-stretch:normal;font-family:'Lohit Telugu';-inkscape-font-specification:'Lohit Telugu';fill:#ffffff;fill-opacity:1;stroke-width:0.10958431"
         id="path3431"
         inkscape:connector-curvature="0" />
      <path
         d="m 28.446529,293.19044 h 0.261119 v 0.23115 q 0.252557,-0.2868 0.616412,-0.2868 0.376696,0 0.595008,0.30393 0.222593,0.30392 0.222593,0.82188 0,0.51796 -0.235435,0.82188 -0.235435,0.30393 -0.629253,0.30393 -0.321048,0 -0.547922,-0.18835 v 1.00595 h -0.282522 z m 0.282522,1.64376 q 0.192629,0.29537 0.552202,0.29537 0.2654,0 0.419503,-0.23544 0.158383,-0.23543 0.158383,-0.63353 0,-0.3981 -0.145541,-0.63354 -0.141261,-0.23543 -0.385258,-0.23543 -0.376696,0 -0.599289,0.37241 z"
         style="font-style:normal;font-variant:normal;font-weight:normal;font-stretch:normal;font-family:'Lohit Telugu';-inkscape-font-specification:'Lohit Telugu';fill:#ffffff;fill-opacity:1;stroke-width:0.10958431"
         id="path3433"
         inkscape:connector-curvature="0" />
      <path
         d="m 30.74095,293.19044 h 0.261119 v 0.23115 q 0.252558,-0.2868 0.616412,-0.2868 0.376696,0 0.595008,0.30393 0.222593,0.30392 0.222593,0.82188 0,0.51796 -0.235435,0.82188 -0.235435,0.30393 -0.629253,0.30393 -0.321048,0 -0.547922,-0.18835 v 1.00595 H 30.74095 Z m 0.282522,1.64376 q 0.192629,0.29537 0.552202,0.29537 0.2654,0 0.419503,-0.23544 0.158383,-0.23543 0.158383,-0.63353 0,-0.3981 -0.145541,-0.63354 -0.141261,-0.23543 -0.385258,-0.23543 -0.376696,0 -0.599289,0.37241 z"
         style="font-style:normal;font-variant:normal;font-weight:normal;font-stretch:normal;font-family:'Lohit Telugu';-inkscape-font-specification:'Lohit Telugu';fill:#ffffff;fill-opacity:1;stroke-width:0.10958431"
         id="path3435"
         inkscape:connector-curvature="0" />
      <path
         d="m 33.741677,295.38213 q -0.402379,0 -0.642095,-0.30393 -0.235435,-0.30821 -0.235435,-0.82188 0,-0.51368 0.235435,-0.8176 0.239716,-0.30821 0.642095,-0.30821 0.389538,0 0.616412,0.28252 0.231155,0.28252 0.231155,0.75339 v 0.16267 h -1.442575 q 0.01712,0.36813 0.175506,0.58217 0.158384,0.21403 0.419502,0.21403 0.346732,0 0.539361,-0.29109 l 0.226873,0.14983 q -0.27396,0.3981 -0.766234,0.3981 z m 0,-1.99478 q -0.239715,0 -0.398099,0.18407 -0.154103,0.17978 -0.188348,0.50083 h 1.147211 q -0.0214,-0.31677 -0.175506,-0.50083 -0.149823,-0.18407 -0.385258,-0.18407 z"
         style="font-style:normal;font-variant:normal;font-weight:normal;font-stretch:normal;font-family:'Lohit Telugu';-inkscape-font-specification:'Lohit Telugu';fill:#ffffff;fill-opacity:1;stroke-width:0.10958431"
         id="path3437"
         inkscape:connector-curvature="0" />
      <path
         d="m 36.819454,295.32648 h -0.282522 v -1.47254 q 0,-0.46659 -0.440905,-0.46659 -0.393819,0 -0.60357,0.35101 v 1.58812 h -0.282522 v -2.14032 h 0.261119 v 0.23543 q 0.256838,-0.29108 0.624973,-0.29108 0.355293,0 0.53936,0.18835 0.184067,0.18407 0.184067,0.53508 z"
         style="font-style:normal;font-variant:normal;font-weight:normal;font-stretch:normal;font-family:'Lohit Telugu';-inkscape-font-specification:'Lohit Telugu';fill:#ffffff;fill-opacity:1;stroke-width:0.10958431"
         id="path3439"
         inkscape:connector-curvature="0" />
      <path
         d="m 38.39901,295.03967 q 0.119858,-0.0856 0.119858,-0.22687 0,-0.14126 -0.115577,-0.23543 -0.111297,-0.0985 -0.273961,-0.15839 -0.162664,-0.0599 -0.329609,-0.1327 -0.162664,-0.0728 -0.278241,-0.20975 -0.111297,-0.13698 -0.111297,-0.33817 0,-0.27824 0.188348,-0.4409 0.188348,-0.16695 0.505115,-0.16695 0.428064,0 0.680622,0.35101 l -0.214032,0.14554 q -0.171226,-0.23971 -0.46659,-0.23971 -0.188348,0 -0.299644,0.0942 -0.111297,0.0942 -0.111297,0.25684 0,0.13698 0.111297,0.22687 0.115577,0.0899 0.278241,0.14983 0.166945,0.0556 0.329609,0.12842 0.162664,0.0685 0.273961,0.21403 0.115577,0.14126 0.115577,0.35529 0,0.26112 -0.196909,0.41522 -0.192629,0.15411 -0.517957,0.15411 -0.462309,0 -0.731989,-0.40667 l 0.214032,-0.14554 q 0.188348,0.29537 0.517957,0.29537 0.196909,0 0.312486,-0.0856 z"
         style="font-style:normal;font-variant:normal;font-weight:normal;font-stretch:normal;font-family:'Lohit Telugu';-inkscape-font-specification:'Lohit Telugu';fill:#ffffff;fill-opacity:1;stroke-width:0.10958431"
         id="path3441"
         inkscape:connector-curvature="0" />
    </g>
    <g
       aria-label="*2"
       style="font-style:normal;font-variant:normal;font-weight:normal;font-stretch:normal;font-size:10.58333302px;line-height:1.25;font-family:Webdings;-inkscape-font-specification:Webdings;letter-spacing:0px;word-spacing:0px;fill:#000000;fill-opacity:1;stroke:none;stroke-width:0.26458332"
       id="text4567"
       transform="matrix(0.87256673,0,0,0.63105137,6.8926818,89.731815)">
      <path
         d="m 12.661959,257.6399 q 0.09208,0.0317 0.180975,0.0889 0.09208,0.0572 0.161925,0.10795 -0.02223,-0.0825 -0.0508,-0.18415 -0.0254,-0.10477 -0.0254,-0.20002 v -0.0222 h 0.2794 v 0.0222 q 0,0.0952 -0.02858,0.20002 -0.0254,0.1016 -0.0508,0.18415 0.07302,-0.0476 0.15875,-0.10477 0.08573,-0.0603 0.1778,-0.0889 l 0.02222,-0.006 0.08255,0.2667 -0.01588,0.006 q -0.09207,0.0286 -0.19685,0.0349 -0.104775,0.006 -0.187325,0.0127 0.0635,0.054 0.142875,0.12065 0.08255,0.0635 0.136525,0.1397 l 0.0127,0.0159 -0.225425,0.1651 -0.0095,-0.019 q -0.05715,-0.0762 -0.09525,-0.17463 -0.0381,-0.0984 -0.06985,-0.1778 -0.03175,0.0794 -0.06985,0.1778 -0.0381,0.0984 -0.09207,0.17145 l -0.0127,0.019 -0.225425,-0.1651 0.01588,-0.0159 q 0.05397,-0.0762 0.136525,-0.14288 0.08573,-0.0667 0.149225,-0.12065 -0.08573,-0.006 -0.1905,-0.01 -0.104775,-0.003 -0.19685,-0.0381 l -0.0127,-0.01 0.07937,-0.26035 z"
         style="font-style:normal;font-variant:normal;font-weight:normal;font-stretch:normal;font-size:3.17499995px;font-family:'Ubuntu Condensed';-inkscape-font-specification:'Ubuntu Condensed, ';fill:#ffffff;fill-opacity:1;stroke-width:0.26458332"
         id="path4605"
         inkscape:connector-curvature="0" />
      <path
         d="m 13.819941,257.61133 q 0.187325,-0.18733 0.4572,-0.18733 0.257175,0 0.3937,0.13653 0.136525,0.13335 0.136525,0.4191 0,0.13335 -0.04445,0.254 -0.04445,0.12065 -0.111125,0.23495 -0.06668,0.11112 -0.14605,0.22225 -0.07938,0.11112 -0.1524,0.2286 -0.07303,0.1143 -0.127,0.2413 -0.05397,0.12382 -0.06668,0.2667 h 0.69215 v 0.24765 h -0.98425 v -0.0603 q 0,-0.21272 0.04763,-0.37782 0.0508,-0.1651 0.12065,-0.29845 0.07303,-0.13335 0.15875,-0.24765 0.08572,-0.1143 0.155575,-0.22225 0.07302,-0.11113 0.12065,-0.22543 0.0508,-0.11747 0.0508,-0.25717 0,-0.16828 -0.06668,-0.2413 -0.06668,-0.0762 -0.200025,-0.0762 -0.09207,0 -0.168275,0.0381 -0.07302,0.0349 -0.13335,0.0921 z"
         style="font-style:normal;font-variant:normal;font-weight:normal;font-stretch:normal;font-size:3.17499995px;font-family:'Ubuntu Condensed';-inkscape-font-specification:'Ubuntu Condensed, ';fill:#ffffff;fill-opacity:1;stroke-width:0.26458332"
         id="path4607"
         inkscape:connector-curvature="0" />
    </g>
    <g
       aria-label="*4"
       style="font-style:normal;font-variant:normal;font-weight:normal;font-stretch:normal;font-size:10.58333302px;line-height:1.25;font-family:Webdings;-inkscape-font-specification:Webdings;letter-spacing:0px;word-spacing:0px;fill:#000000;fill-opacity:1;stroke:none;stroke-width:0.26458332"
       id="text4567-5"
       transform="matrix(0.87256673,0,0,0.63105137,6.3063825,89.688925)">
      <path
         d="m 22.850932,257.65696 q 0.09208,0.0317 0.180975,0.0889 0.09208,0.0571 0.161925,0.10795 -0.02222,-0.0826 -0.0508,-0.18415 -0.0254,-0.10477 -0.0254,-0.20002 v -0.0222 h 0.2794 v 0.0222 q 0,0.0952 -0.02858,0.20002 -0.0254,0.1016 -0.0508,0.18415 0.07303,-0.0476 0.15875,-0.10477 0.08573,-0.0603 0.1778,-0.0889 l 0.02222,-0.006 0.08255,0.2667 -0.01588,0.006 q -0.09207,0.0286 -0.19685,0.0349 -0.104775,0.006 -0.187325,0.0127 0.0635,0.054 0.142875,0.12065 0.08255,0.0635 0.136525,0.1397 l 0.0127,0.0159 -0.225425,0.1651 -0.0095,-0.019 q -0.05715,-0.0762 -0.09525,-0.17463 -0.0381,-0.0984 -0.06985,-0.1778 -0.03175,0.0794 -0.06985,0.1778 -0.0381,0.0984 -0.09208,0.17145 l -0.0127,0.019 -0.225425,-0.1651 0.01588,-0.0159 q 0.05397,-0.0762 0.136525,-0.14288 0.08573,-0.0667 0.149225,-0.12065 -0.08573,-0.006 -0.1905,-0.01 -0.104775,-0.003 -0.19685,-0.0381 l -0.0127,-0.01 0.07937,-0.26035 z"
         style="font-style:normal;font-variant:normal;font-weight:normal;font-stretch:normal;font-size:3.17499995px;font-family:'Ubuntu Condensed';-inkscape-font-specification:'Ubuntu Condensed, ';fill:#ffffff;fill-opacity:1;stroke-width:0.26458332"
         id="path4610"
         inkscape:connector-curvature="0" />
      <path
         d="m 24.002564,258.95554 q 0.05715,-0.19685 0.14605,-0.41593 0.0889,-0.21907 0.18415,-0.42227 0.09525,-0.2032 0.180975,-0.3683 0.0889,-0.1651 0.142875,-0.25718 h 0.2794 v 1.43828 h 0.2159 v 0.22542 h -0.2159 v 0.53658 h -0.250825 v -0.53658 h -0.682625 z m 0.682625,-0.0254 v -1.07315 q -0.04763,0.0984 -0.111125,0.22542 -0.06032,0.127 -0.123825,0.26988 -0.06032,0.14287 -0.117475,0.2921 -0.05715,0.14605 -0.09843,0.28575 z"
         style="font-style:normal;font-variant:normal;font-weight:normal;font-stretch:normal;font-size:3.17499995px;font-family:'Ubuntu Condensed';-inkscape-font-specification:'Ubuntu Condensed, ';fill:#ffffff;fill-opacity:1;stroke-width:0.26458332"
         id="path4612"
         inkscape:connector-curvature="0" />
    </g>
    <g
       aria-label="*8"
       transform="matrix(1.1758907,0,0,0.85041917,0.52916667,0.52916667)"
       style="font-style:normal;font-variant:normal;font-weight:normal;font-stretch:normal;font-size:7.85333633px;line-height:1.25;font-family:Webdings;-inkscape-font-specification:Webdings;letter-spacing:0px;word-spacing:0px;fill:#000000;fill-opacity:1;stroke:none;stroke-width:0.19633338"
       id="text4567-5-1">
      <path
         d="m 29.422914,296.08386 q 0.06832,0.0236 0.134292,0.066 0.06832,0.0424 0.120156,0.0801 -0.01649,-0.0613 -0.0377,-0.13665 -0.01885,-0.0777 -0.01885,-0.14843 v -0.0165 h 0.207328 v 0.0165 q 0,0.0707 -0.0212,0.14843 -0.01885,0.0754 -0.0377,0.13665 0.05419,-0.0353 0.1178,-0.0778 0.06361,-0.0448 0.131936,-0.066 l 0.01649,-0.005 0.06126,0.19791 -0.01178,0.005 q -0.06832,0.0212 -0.146072,0.0259 -0.07775,0.005 -0.139004,0.009 0.04712,0.0401 0.10602,0.0895 0.06126,0.0471 0.101308,0.10366 l 0.0094,0.0118 -0.167276,0.12251 -0.0071,-0.0141 q -0.04241,-0.0566 -0.07068,-0.12958 -0.02827,-0.073 -0.05183,-0.13194 -0.02356,0.0589 -0.05183,0.13194 -0.02827,0.073 -0.06832,0.12722 l -0.0094,0.0141 -0.167276,-0.12252 0.01178,-0.0118 q 0.04005,-0.0565 0.101308,-0.10602 0.06361,-0.0495 0.110732,-0.0895 -0.06361,-0.005 -0.14136,-0.007 -0.07775,-0.002 -0.146072,-0.0283 l -0.0094,-0.007 0.0589,-0.19319 z"
         style="font-style:normal;font-variant:normal;font-weight:normal;font-stretch:normal;font-size:2.35600066px;font-family:'Ubuntu Condensed';-inkscape-font-specification:'Ubuntu Condensed, ';fill:#ffffff;fill-opacity:1;stroke-width:0.19633338"
         id="path4615"
         inkscape:connector-curvature="0" />
      <path
         d="m 31.057316,296.32181 q 0,0.13665 -0.06832,0.24974 -0.06597,0.11073 -0.155496,0.19319 0.09895,0.073 0.171988,0.1767 0.07304,0.10131 0.07304,0.24267 0,0.11073 -0.03534,0.19555 -0.03298,0.0825 -0.08953,0.139 -0.05419,0.0542 -0.124868,0.0825 -0.07068,0.0283 -0.146072,0.0283 -0.08717,0 -0.160208,-0.033 -0.07304,-0.0306 -0.124868,-0.0848 -0.05183,-0.0565 -0.0801,-0.1343 -0.02827,-0.0777 -0.02827,-0.16963 0,-0.14607 0.06361,-0.25916 0.06597,-0.11544 0.174344,-0.20262 -0.08953,-0.0683 -0.146072,-0.17198 -0.05654,-0.10602 -0.05654,-0.24738 0,-0.10602 0.03298,-0.18142 0.03298,-0.0777 0.08482,-0.12722 0.05419,-0.0495 0.120156,-0.0707 0.06597,-0.0236 0.134292,-0.0236 0.06597,0 0.12958,0.0236 0.06597,0.0212 0.1178,0.0707 0.05183,0.0471 0.08246,0.12251 0.03063,0.0754 0.03063,0.18141 z m -0.1767,0.87644 q 0,-0.0613 -0.0212,-0.11309 -0.01885,-0.0542 -0.05183,-0.0989 -0.03298,-0.0471 -0.07539,-0.0848 -0.04005,-0.0377 -0.08482,-0.0707 -0.06832,0.0636 -0.113088,0.14843 -0.04476,0.0848 -0.04476,0.21204 0,0.12722 0.05183,0.20497 0.05419,0.0754 0.146072,0.0754 0.07775,0 0.134292,-0.0683 0.0589,-0.0707 0.0589,-0.20497 z m -0.358112,-0.89764 q 0,0.0754 0.01178,0.13429 0.01178,0.0565 0.03534,0.10131 0.02356,0.0424 0.05654,0.0778 0.03534,0.0353 0.0801,0.066 0.06597,-0.0683 0.10602,-0.14372 0.04241,-0.0777 0.04241,-0.20026 0,-0.14372 -0.04712,-0.1979 -0.04712,-0.0566 -0.115444,-0.0566 -0.02592,0 -0.05654,0.009 -0.03063,0.009 -0.05654,0.0353 -0.02356,0.0236 -0.04005,0.066 -0.01649,0.0424 -0.01649,0.10838 z"
         style="font-style:normal;font-variant:normal;font-weight:normal;font-stretch:normal;font-size:2.35600066px;font-family:'Ubuntu Condensed';-inkscape-font-specification:'Ubuntu Condensed, ';fill:#ffffff;fill-opacity:1;stroke-width:0.19633338"
         id="path4617"
         inkscape:connector-curvature="0" />
    </g>
  </g>
</svg>
